<svg width="929" height="402" viewBox="0 0 929 402" fill="none" xmlns="http://www.w3.org/2000/svg">
<rect width="929" height="402" fill="#2CD035"/>
<path d="M323.059 121H322.971L299.216 121.165L125.75 121H125.642L100.742 121.165C84.3608 121.19 71.5312 131.035 71.5312 143.6V258.735C71.5312 271.31 84.4082 281.165 100.809 281.165H100.911L125.791 281L299.236 281.165H299.352L323.12 281C331.172 280.983 338.887 278.612 344.576 274.407C350.264 270.202 353.462 264.506 353.469 258.565V143.435C353.46 137.487 350.253 131.784 344.552 127.578C338.851 123.372 331.121 121.007 323.059 121ZM136.594 233C136.594 235.122 135.451 237.157 133.418 238.657C131.384 240.157 128.626 241 125.75 241C122.874 241 120.116 240.157 118.082 238.657C116.049 237.157 114.906 235.122 114.906 233V169C114.906 166.878 116.049 164.843 118.082 163.343C120.116 161.843 122.874 161 125.75 161C128.626 161 131.384 161.843 133.418 163.343C135.451 164.843 136.594 166.878 136.594 169V233ZM179.969 249C179.969 251.122 178.826 253.157 176.793 254.657C174.759 256.157 172.001 257 169.125 257C166.249 257 163.491 256.157 161.457 254.657C159.424 253.157 158.281 251.122 158.281 249V153C158.281 150.878 159.424 148.843 161.457 147.343C163.491 145.843 166.249 145 169.125 145C172.001 145 174.759 145.843 176.793 147.343C178.826 148.843 179.969 150.878 179.969 153V249ZM223.344 241C223.344 243.122 222.201 245.157 220.168 246.657C218.134 248.157 215.376 249 212.5 249C209.624 249 206.866 248.157 204.832 246.657C202.799 245.157 201.656 243.122 201.656 241V161C201.656 158.878 202.799 156.843 204.832 155.343C206.866 153.843 209.624 153 212.5 153C215.376 153 218.134 153.843 220.168 155.343C222.201 156.843 223.344 158.878 223.344 161V241ZM266.719 249C266.719 251.122 265.576 253.157 263.543 254.657C261.509 256.157 258.751 257 255.875 257C252.999 257 250.241 256.157 248.207 254.657C246.174 253.157 245.031 251.122 245.031 249V153C245.031 150.878 246.174 148.843 248.207 147.343C250.241 145.843 252.999 145 255.875 145C258.751 145 261.509 145.843 263.543 147.343C265.576 148.843 266.719 150.878 266.719 153V249ZM310.094 233C310.094 235.122 308.951 237.157 306.918 238.657C304.884 240.157 302.126 241 299.25 241C296.374 241 293.616 240.157 291.582 238.657C289.549 237.157 288.406 235.122 288.406 233V169C288.406 166.878 289.549 164.843 291.582 163.343C293.616 161.843 296.374 161 299.25 161C302.126 161 304.884 161.843 306.918 163.343C308.951 164.843 310.094 166.878 310.094 169V233Z" fill="white"/>
<path d="M430.288 176.312C429.093 176.312 427.941 176.013 426.832 175.416C425.723 174.819 424.955 173.923 424.528 172.728C423.675 170.424 422.736 168.803 421.712 167.864C420.773 166.84 419.621 166.328 418.256 166.328C417.403 166.328 416.592 166.968 415.824 168.248C415.141 169.528 414.629 171.533 414.288 174.264C413.691 179.896 413.392 184.205 413.392 187.192C414.672 187.448 416.464 187.576 418.768 187.576C419.963 187.576 421.499 187.491 423.376 187.32L426.832 187.192C428.368 187.192 429.563 187.491 430.416 188.088C431.269 188.685 431.696 189.667 431.696 191.032C431.696 192.995 431.099 194.616 429.904 195.896C428.709 197.176 427.301 197.816 425.68 197.816C419.536 197.816 415.397 198.115 413.264 198.712C413.264 203.832 413.52 211.171 414.032 220.728C414.032 222.179 414.117 224.269 414.288 227L414.8 236.856C414.971 239.331 414.715 241.08 414.032 242.104C413.435 243.043 412.112 243.512 410.064 243.512C406.309 243.512 403.877 241.251 402.768 236.728C402.085 233.485 401.531 228.877 401.104 222.904C400.763 216.845 400.592 211.512 400.592 206.904C400.592 204.515 400.72 201.741 400.976 198.584C400.805 198.499 400.336 198.456 399.568 198.456C398.8 198.456 398.245 198.499 397.904 198.584C395.344 198.755 393.467 198.84 392.272 198.84C391.504 198.84 390.736 198.285 389.968 197.176C389.2 196.067 388.816 194.787 388.816 193.336C388.816 192.483 389.115 191.715 389.712 191.032C390.309 190.264 391.035 189.709 391.888 189.368C393.168 188.685 395.003 188.344 397.392 188.344H401.232C401.232 176.397 402.555 168.077 405.2 163.384C407.76 158.947 411.984 156.728 417.872 156.728C420.603 156.728 423.205 157.283 425.68 158.392C428.24 159.501 430.288 161.037 431.824 163C433.445 164.963 434.256 167.181 434.256 169.656C434.256 172.301 433.915 174.093 433.232 175.032C432.549 175.885 431.568 176.312 430.288 176.312ZM496.524 236.856C496.524 238.733 495.5 240.312 493.452 241.592C491.489 242.872 489.655 243.512 487.948 243.512C484.705 243.512 482.103 243.128 480.14 242.36C478.263 241.507 476.513 239.971 474.892 237.752C472.673 239.715 469.644 241.208 465.804 242.232C461.964 243.171 458.423 243.64 455.18 243.64C449.889 243.64 445.537 242.232 442.124 239.416C438.711 236.515 437.004 232.291 437.004 226.744C437.004 224.355 437.644 222.179 438.924 220.216C440.204 218.168 441.953 216.376 444.172 214.84C446.647 213.219 449.463 211.981 452.62 211.128C455.777 210.189 459.063 209.72 462.476 209.72C464.268 209.72 466.401 210.061 468.876 210.744C471.351 211.427 473.271 212.152 474.636 212.92V210.872C474.636 206.264 473.527 203.107 471.308 201.4C469.089 199.608 465.505 198.712 460.556 198.712C459.105 198.712 457.655 199.011 456.204 199.608C454.839 200.205 453.26 201.016 451.468 202.04C449.079 203.32 446.817 203.96 444.684 203.96C443.916 203.96 443.191 203.448 442.508 202.424C441.825 201.315 441.484 200.333 441.484 199.48C441.484 197.005 442.636 194.872 444.94 193.08C447.329 191.288 450.145 189.965 453.388 189.112C456.631 188.173 459.532 187.704 462.092 187.704C464.652 187.704 467.596 188.216 470.924 189.24C474.252 190.179 476.983 191.501 479.116 193.208C481.676 195.427 483.639 198.029 485.004 201.016C486.455 203.917 487.18 207.117 487.18 210.616C487.18 211.725 487.095 213.389 486.924 215.608C486.753 217.997 486.668 220.045 486.668 221.752C486.668 222.52 486.583 223.672 486.412 225.208C486.241 227.085 486.156 228.579 486.156 229.688C486.156 230.712 486.54 231.608 487.308 232.376C488.076 233.059 488.972 233.4 489.996 233.4L493.58 233.272C494.519 233.272 495.244 233.613 495.756 234.296C496.268 234.979 496.524 235.832 496.524 236.856ZM455.308 233.528C458.977 233.528 462.049 233.144 464.524 232.376C466.999 231.608 469.985 230.2 473.484 228.152C473.825 226.701 474.039 224.781 474.124 222.392C469.431 220.173 465.548 219.064 462.476 219.064C458.977 219.064 455.863 219.704 453.132 220.984C450.401 222.264 449.036 224.525 449.036 227.768C449.036 229.389 449.719 230.755 451.084 231.864C452.449 232.973 453.857 233.528 455.308 233.528ZM540.874 215.352C541.557 215.779 542.879 216.589 544.842 217.784C546.89 218.893 548.255 220.216 548.938 221.752C549.621 223.288 549.962 225.421 549.962 228.152C549.962 231.224 549.066 233.955 547.274 236.344C545.482 238.648 543.178 240.44 540.362 241.72C538.399 242.573 536.266 243.085 533.962 243.256C531.743 243.427 529.055 243.512 525.898 243.512C524.191 243.512 521.973 243.256 519.242 242.744C516.597 242.232 514.762 241.763 513.738 241.336C511.007 239.8 508.703 238.008 506.826 235.96C504.949 233.912 504.01 231.821 504.01 229.688C504.01 227.981 504.565 226.616 505.674 225.592C506.783 224.568 508.234 224.056 510.026 224.056C510.965 224.056 511.861 224.312 512.714 224.824C513.653 225.251 514.293 225.763 514.634 226.36C515.573 228.579 517.151 230.243 519.37 231.352C521.589 232.461 523.85 233.016 526.154 233.016C534.261 233.016 538.314 231.565 538.314 228.664C538.314 227.896 538.101 227.299 537.674 226.872C537.333 226.36 536.821 225.848 536.138 225.336C535.029 224.568 533.45 223.757 531.402 222.904C529.439 222.051 527.69 221.411 526.154 220.984C522.655 220.216 519.242 219.064 515.914 217.528C512.842 215.992 510.325 213.987 508.362 211.512C506.399 208.952 505.418 205.837 505.418 202.168C505.418 199.949 506.229 197.773 507.85 195.64C509.557 193.421 511.519 191.757 513.738 190.648C515.274 190.051 517.791 189.411 521.29 188.728C524.789 188.045 527.178 187.704 528.458 187.704C530.421 187.704 532.554 187.917 534.858 188.344C537.162 188.685 538.911 189.283 540.106 190.136C542.41 191.501 544.287 192.952 545.738 194.488C547.189 195.939 547.914 197.603 547.914 199.48C547.914 200.419 547.701 201.443 547.274 202.552C546.847 203.576 546.335 204.216 545.738 204.472C544.458 205.069 542.965 205.368 541.258 205.368C540.49 205.368 539.85 205.155 539.338 204.728C538.911 204.301 538.314 203.619 537.546 202.68C536.607 201.229 535.711 200.376 534.858 200.12C533.834 199.864 532.341 199.565 530.378 199.224C528.415 198.797 527.093 198.584 526.41 198.584C524.277 198.584 522.229 199.011 520.266 199.864C518.389 200.717 517.45 201.869 517.45 203.32C517.45 205.027 518.858 206.477 521.674 207.672C523.466 208.525 525.429 209.251 527.562 209.848C529.781 210.445 531.146 210.829 531.658 211C532.853 211.256 534.389 211.853 536.266 212.792C538.229 213.731 539.765 214.584 540.874 215.352ZM562.29 198.712C561.095 198.541 560.114 198.029 559.346 197.176C558.663 196.323 558.322 195.299 558.322 194.104C558.322 193.507 558.45 192.867 558.706 192.184C559.047 191.501 559.517 190.904 560.114 190.392C561.223 189.453 562.717 188.557 564.594 187.704C566.557 186.936 567.965 185.997 568.818 184.888C569.671 183.779 570.098 181.688 570.098 178.616C570.098 177.336 570.013 176.227 569.842 175.288C569.757 174.349 569.714 173.624 569.714 173.112C569.714 171.235 570.397 169.827 571.762 168.888C573.127 167.949 574.706 167.48 576.498 167.48C578.717 167.48 580.21 168.035 580.978 169.144C581.831 170.253 582.258 172.301 582.258 175.288C582.258 178.189 582.13 180.707 581.874 182.84C581.618 184.888 581.063 186.723 580.21 188.344C581.405 188.344 583.367 188.259 586.098 188.088C589.853 187.917 592.455 187.832 593.906 187.832C595.357 187.832 596.637 188.216 597.746 188.984C598.855 189.667 599.41 190.648 599.41 191.928C599.41 193.72 599.026 195.043 598.258 195.896C597.49 196.749 596.381 197.304 594.93 197.56C591.431 198.499 586.482 199.053 580.082 199.224C579.911 202.552 579.826 206.179 579.826 210.104C579.826 216.675 580.21 221.709 580.978 225.208C581.49 227.939 582.343 229.944 583.538 231.224C584.818 232.419 586.695 233.016 589.17 233.016C590.45 233.016 591.474 232.845 592.242 232.504C593.095 232.163 593.565 231.949 593.65 231.864C594.674 231.267 595.613 230.968 596.466 230.968C597.661 230.968 598.514 231.352 599.026 232.12C599.623 232.888 599.922 233.912 599.922 235.192C599.922 237.581 598.642 239.587 596.082 241.208C593.522 242.744 590.237 243.512 586.226 243.512C581.703 243.512 577.863 242.189 574.706 239.544C571.634 236.813 569.799 233.229 569.202 228.792C568.349 224.781 567.922 219.149 567.922 211.896C567.922 208.739 568.093 204.515 568.434 199.224L562.29 198.712ZM676.413 176.312C675.218 176.312 674.066 176.013 672.957 175.416C671.848 174.819 671.08 173.923 670.653 172.728C669.8 170.424 668.861 168.803 667.837 167.864C666.898 166.84 665.746 166.328 664.381 166.328C663.528 166.328 662.717 166.968 661.949 168.248C661.266 169.528 660.754 171.533 660.413 174.264C659.816 179.896 659.517 184.205 659.517 187.192C660.797 187.448 662.589 187.576 664.893 187.576C666.088 187.576 667.624 187.491 669.501 187.32L672.957 187.192C674.493 187.192 675.688 187.491 676.541 188.088C677.394 188.685 677.821 189.667 677.821 191.032C677.821 192.995 677.224 194.616 676.029 195.896C674.834 197.176 673.426 197.816 671.805 197.816C665.661 197.816 661.522 198.115 659.389 198.712C659.389 203.832 659.645 211.171 660.157 220.728C660.157 222.179 660.242 224.269 660.413 227L660.925 236.856C661.096 239.331 660.84 241.08 660.157 242.104C659.56 243.043 658.237 243.512 656.189 243.512C652.434 243.512 650.002 241.251 648.893 236.728C648.21 233.485 647.656 228.877 647.229 222.904C646.888 216.845 646.717 211.512 646.717 206.904C646.717 204.515 646.845 201.741 647.101 198.584C646.93 198.499 646.461 198.456 645.693 198.456C644.925 198.456 644.37 198.499 644.029 198.584C641.469 198.755 639.592 198.84 638.397 198.84C637.629 198.84 636.861 198.285 636.093 197.176C635.325 196.067 634.941 194.787 634.941 193.336C634.941 192.483 635.24 191.715 635.837 191.032C636.434 190.264 637.16 189.709 638.013 189.368C639.293 188.685 641.128 188.344 643.517 188.344H647.357C647.357 176.397 648.68 168.077 651.325 163.384C653.885 158.947 658.109 156.728 663.997 156.728C666.728 156.728 669.33 157.283 671.805 158.392C674.365 159.501 676.413 161.037 677.949 163C679.57 164.963 680.381 167.181 680.381 169.656C680.381 172.301 680.04 174.093 679.357 175.032C678.674 175.885 677.693 176.312 676.413 176.312ZM737.841 201.912C738.524 203.107 739.078 204.856 739.505 207.16C739.932 209.379 740.145 211.384 740.145 213.176C740.145 215.48 739.889 218.04 739.377 220.856C738.865 223.672 738.396 225.848 737.969 227.384C732.081 238.136 723.377 243.512 711.857 243.512C707.59 243.512 703.238 242.104 698.801 239.288C694.364 236.472 691.292 233.229 689.585 229.56C687.281 222.307 686.129 217.656 686.129 215.608C686.129 212.195 686.854 208.568 688.305 204.728C689.841 200.888 691.761 197.56 694.065 194.744C695.601 192.781 698.246 191.117 702.001 189.752C705.756 188.301 709.169 187.576 712.241 187.576C718.214 187.576 723.249 188.728 727.345 191.032C731.526 193.251 735.025 196.877 737.841 201.912ZM726.705 222.52C727.132 221.667 727.345 218.808 727.345 213.944C727.345 211.469 726.876 209.037 725.937 206.648C725.084 204.259 723.804 202.211 722.097 200.504C721.926 200.333 721.457 200.077 720.689 199.736C719.921 199.309 718.854 198.925 717.489 198.584C716.209 198.157 714.716 197.944 713.009 197.944C708.23 197.944 704.732 199.864 702.513 203.704C700.294 207.544 699.185 211.896 699.185 216.76C699.185 217.528 699.441 219.107 699.953 221.496C700.465 223.885 700.849 225.421 701.105 226.104C701.788 227.299 703.153 228.707 705.201 230.328C707.334 231.864 709.638 232.632 712.113 232.632C715.953 232.632 718.982 231.736 721.201 229.944C723.505 228.067 725.34 225.592 726.705 222.52ZM802.841 201.912C803.524 203.107 804.078 204.856 804.505 207.16C804.932 209.379 805.145 211.384 805.145 213.176C805.145 215.565 804.761 218.552 803.993 222.136C803.225 225.635 802.585 227.981 802.073 229.176C797.465 238.733 788.59 243.512 775.449 243.512C771.268 243.512 767.172 242.147 763.161 239.416C759.15 236.6 756.292 233.315 754.585 229.56L753.689 227C753.604 226.659 753.134 225.379 752.281 223.16C751.513 220.856 751.129 219.107 751.129 217.912C751.129 214.413 751.982 210.36 753.689 205.752C755.396 201.144 757.358 197.475 759.577 194.744C761.028 192.781 763.801 191.117 767.897 189.752C771.993 188.301 775.62 187.576 778.777 187.576C784.665 187.576 789.401 188.685 792.985 190.904C796.654 193.123 799.94 196.792 802.841 201.912ZM791.065 222.52C791.406 221.923 791.705 220.856 791.961 219.32C792.217 217.784 792.345 215.992 792.345 213.944C792.345 211.469 791.876 209.037 790.937 206.648C790.084 204.259 788.804 202.211 787.097 200.504C787.012 200.333 786.713 200.077 786.201 199.736C785.689 199.309 784.878 198.925 783.769 198.584C782.66 198.157 781.252 197.944 779.545 197.944C776.217 197.944 773.401 198.925 771.097 200.888C768.793 202.851 767.044 205.283 765.849 208.184C764.74 211.085 764.185 213.944 764.185 216.76C764.185 217.528 764.441 219.107 764.953 221.496C765.465 223.885 765.849 225.421 766.105 226.104C766.788 227.299 768.11 228.707 770.073 230.328C772.036 231.864 774.254 232.632 776.729 232.632C780.569 232.632 783.556 231.736 785.689 229.944C787.908 228.152 789.7 225.677 791.065 222.52ZM870.401 242.36C868.609 242.36 866.902 241.848 865.281 240.824C863.745 239.715 862.38 238.563 861.185 237.368C859.99 236.088 859.18 235.235 858.753 234.808C856.961 237.368 854.358 239.459 850.945 241.08C847.532 242.701 844.246 243.512 841.089 243.512C836.225 243.512 831.916 242.488 828.161 240.44C824.406 238.392 821.505 235.619 819.457 232.12C817.409 228.536 816.385 224.568 816.385 220.216C816.385 216.12 816.854 212.195 817.793 208.44C818.817 204.6 820.182 201.4 821.889 198.84C824.193 195.597 827.265 193.037 831.105 191.16C835.03 189.283 838.913 188.344 842.753 188.344C845.057 188.344 847.233 188.771 849.281 189.624C851.329 190.477 853.121 191.544 854.657 192.824C854.657 187.192 854.614 183.651 854.529 182.2V179.384C854.529 171.363 855.041 165.517 856.065 161.848C857.004 158.264 859.308 156.472 862.977 156.472C864.94 156.472 866.39 156.899 867.329 157.752C868.268 158.605 868.737 160.227 868.737 162.616C868.737 163.469 868.524 165.816 868.097 169.656C867.158 179.213 866.689 188.771 866.689 198.328C866.689 206.349 866.817 212.323 867.073 216.248C867.414 220.088 868.054 223.16 868.993 225.464C870.017 227.768 871.596 229.816 873.729 231.608C875.009 232.632 875.905 233.485 876.417 234.168C877.014 234.851 877.313 235.747 877.313 236.856C877.313 238.221 876.63 239.501 875.265 240.696C873.9 241.805 872.278 242.36 870.401 242.36ZM840.705 233.144C845.228 233.144 848.556 231.736 850.689 228.92C852.908 226.019 854.017 222.349 854.017 217.912L853.889 210.744C853.804 209.379 853.761 207.544 853.761 205.24C850.604 201.485 847.19 199.608 843.521 199.608C841.046 199.608 838.7 200.248 836.481 201.528C834.348 202.808 832.598 204.685 831.233 207.16C829.782 209.976 829.057 214.243 829.057 219.96C829.057 223.885 830.209 227.085 832.513 229.56C834.817 231.949 837.548 233.144 840.705 233.144Z" fill="white"/>
</svg>
